<mxfile host="app.diagrams.net" modified="2022-08-28T04:50:02.044Z" agent="5.0 (Windows NT 10.0; Win64; x64) AppleWebKit/537.36 (KHTML, like Gecko) Chrome/104.0.0.0 Safari/537.36" etag="U_ZnnxxP6GbYP3z0W9FA" version="20.2.3" type="github">
  <diagram id="Cf0lLEK_9qnLcHxA3XWf" name="部署图">
    <mxGraphModel dx="868" dy="620" grid="1" gridSize="10" guides="1" tooltips="1" connect="1" arrows="1" fold="1" page="1" pageScale="1" pageWidth="827" pageHeight="1169" math="0" shadow="0">
      <root>
        <mxCell id="0" />
        <mxCell id="1" parent="0" />
        <mxCell id="Lmyy_30AQW-yStVO0VXv-1" value="" style="group" vertex="1" connectable="0" parent="1">
          <mxGeometry x="40" y="50" width="180" height="140" as="geometry" />
        </mxCell>
        <mxCell id="Lmyy_30AQW-yStVO0VXv-2" value="数据编目" style="rounded=1;whiteSpace=wrap;html=1;fillColor=#ffe6cc;strokeColor=#d79b00;verticalAlign=top;" vertex="1" parent="Lmyy_30AQW-yStVO0VXv-1">
          <mxGeometry width="180" height="140" as="geometry" />
        </mxCell>
        <mxCell id="Lmyy_30AQW-yStVO0VXv-3" value="基于标签的快速检索" style="rounded=0;whiteSpace=wrap;html=1;" vertex="1" parent="Lmyy_30AQW-yStVO0VXv-1">
          <mxGeometry x="96.83" y="38.57" width="65.74" height="30" as="geometry" />
        </mxCell>
        <mxCell id="Lmyy_30AQW-yStVO0VXv-4" value="数据资源目录注册" style="rounded=0;whiteSpace=wrap;html=1;" vertex="1" parent="Lmyy_30AQW-yStVO0VXv-1">
          <mxGeometry x="14.26" y="40" width="65.13" height="28.57" as="geometry" />
        </mxCell>
        <mxCell id="Lmyy_30AQW-yStVO0VXv-5" value="修改" style="rounded=0;whiteSpace=wrap;html=1;" vertex="1" parent="Lmyy_30AQW-yStVO0VXv-1">
          <mxGeometry x="14.26" y="90" width="65.74" height="29.05" as="geometry" />
        </mxCell>
        <mxCell id="Lmyy_30AQW-yStVO0VXv-6" value="审核" style="rounded=0;whiteSpace=wrap;html=1;" vertex="1" parent="Lmyy_30AQW-yStVO0VXv-1">
          <mxGeometry x="99.4" y="90" width="60.6" height="30" as="geometry" />
        </mxCell>
        <mxCell id="Lmyy_30AQW-yStVO0VXv-7" value="" style="group;fillColor=default;fillStyle=hatch;container=0;" vertex="1" connectable="0" parent="1">
          <mxGeometry x="50" y="210" width="150" height="90.000756302521" as="geometry" />
        </mxCell>
        <mxCell id="Lmyy_30AQW-yStVO0VXv-16" value="" style="group;fillColor=default;fillStyle=hatch;" vertex="1" connectable="0" parent="1">
          <mxGeometry x="260" y="50" width="150" height="90.000756302521" as="geometry" />
        </mxCell>
        <mxCell id="Lmyy_30AQW-yStVO0VXv-17" value="数据归集" style="rounded=1;whiteSpace=wrap;html=1;fillColor=#D4E1F5;strokeColor=#d79b00;verticalAlign=top;" vertex="1" parent="Lmyy_30AQW-yStVO0VXv-16">
          <mxGeometry width="150" height="90" as="geometry" />
        </mxCell>
        <mxCell id="Lmyy_30AQW-yStVO0VXv-18" value="归集配置" style="rounded=0;whiteSpace=wrap;html=1;" vertex="1" parent="Lmyy_30AQW-yStVO0VXv-16">
          <mxGeometry x="12.4" y="30" width="57.6" height="18.57" as="geometry" />
        </mxCell>
        <mxCell id="Lmyy_30AQW-yStVO0VXv-19" value="任务调度" style="rounded=0;whiteSpace=wrap;html=1;" vertex="1" parent="Lmyy_30AQW-yStVO0VXv-16">
          <mxGeometry x="80.00086956521739" y="29.99932773109243" width="54.78260869565218" height="18.57142857142857" as="geometry" />
        </mxCell>
        <mxCell id="Lmyy_30AQW-yStVO0VXv-20" value="运行监控" style="rounded=0;whiteSpace=wrap;html=1;" vertex="1" parent="Lmyy_30AQW-yStVO0VXv-16">
          <mxGeometry x="12.4" y="60" width="57.6" height="18.57" as="geometry" />
        </mxCell>
        <mxCell id="Lmyy_30AQW-yStVO0VXv-21" value="" style="group;fillColor=default;fillStyle=hatch;" vertex="1" connectable="0" parent="1">
          <mxGeometry x="470" y="50" width="330" height="170" as="geometry" />
        </mxCell>
        <mxCell id="Lmyy_30AQW-yStVO0VXv-22" value="" style="group" vertex="1" connectable="0" parent="Lmyy_30AQW-yStVO0VXv-21">
          <mxGeometry x="-1" width="330" height="170" as="geometry" />
        </mxCell>
        <mxCell id="Lmyy_30AQW-yStVO0VXv-23" value="数据共享" style="rounded=1;whiteSpace=wrap;html=1;fillColor=#D5E8D4;strokeColor=#d79b00;verticalAlign=top;arcSize=5;" vertex="1" parent="Lmyy_30AQW-yStVO0VXv-22">
          <mxGeometry width="330" height="170" as="geometry" />
        </mxCell>
        <mxCell id="Lmyy_30AQW-yStVO0VXv-24" value="服务注册新增" style="rounded=0;whiteSpace=wrap;html=1;" vertex="1" parent="Lmyy_30AQW-yStVO0VXv-22">
          <mxGeometry x="28" y="33.900000000000006" width="60" height="33.66" as="geometry" />
        </mxCell>
        <mxCell id="Lmyy_30AQW-yStVO0VXv-25" value="服务注册审核" style="rounded=0;whiteSpace=wrap;html=1;" vertex="1" parent="Lmyy_30AQW-yStVO0VXv-22">
          <mxGeometry x="102" y="33.900000000000006" width="56" height="33.66" as="geometry" />
        </mxCell>
        <mxCell id="Lmyy_30AQW-yStVO0VXv-26" value="服务注册修改" style="rounded=0;whiteSpace=wrap;html=1;" vertex="1" parent="Lmyy_30AQW-yStVO0VXv-22">
          <mxGeometry x="168" y="33.900000000000006" width="61.12" height="33.66" as="geometry" />
        </mxCell>
        <mxCell id="Lmyy_30AQW-yStVO0VXv-27" value="服务注册查询" style="rounded=0;whiteSpace=wrap;html=1;" vertex="1" parent="Lmyy_30AQW-yStVO0VXv-22">
          <mxGeometry x="238" y="33.900000000000006" width="60.6" height="33.66" as="geometry" />
        </mxCell>
        <mxCell id="Lmyy_30AQW-yStVO0VXv-28" value="服务申请新增" style="rounded=0;whiteSpace=wrap;html=1;" vertex="1" parent="Lmyy_30AQW-yStVO0VXv-22">
          <mxGeometry x="30" y="82.67" width="60" height="37.33" as="geometry" />
        </mxCell>
        <mxCell id="Lmyy_30AQW-yStVO0VXv-29" value="服务申请审核" style="rounded=0;whiteSpace=wrap;html=1;" vertex="1" parent="Lmyy_30AQW-yStVO0VXv-22">
          <mxGeometry x="102" y="82.67" width="58" height="37.33" as="geometry" />
        </mxCell>
        <mxCell id="Lmyy_30AQW-yStVO0VXv-30" value="服务使用统计分析" style="rounded=0;whiteSpace=wrap;html=1;" vertex="1" parent="Lmyy_30AQW-yStVO0VXv-22">
          <mxGeometry x="32" y="130" width="58" height="30" as="geometry" />
        </mxCell>
        <mxCell id="Lmyy_30AQW-yStVO0VXv-31" value="" style="group" vertex="1" connectable="0" parent="1">
          <mxGeometry x="280" y="400" width="150" height="90" as="geometry" />
        </mxCell>
        <mxCell id="Lmyy_30AQW-yStVO0VXv-32" value="数据服务器" style="rounded=1;whiteSpace=wrap;html=1;fillColor=#CCE5FF;strokeColor=#d79b00;verticalAlign=top;" vertex="1" parent="Lmyy_30AQW-yStVO0VXv-31">
          <mxGeometry width="150" height="90" as="geometry" />
        </mxCell>
        <mxCell id="Lmyy_30AQW-yStVO0VXv-33" value="数据备份" style="rounded=0;whiteSpace=wrap;html=1;" vertex="1" parent="Lmyy_30AQW-yStVO0VXv-31">
          <mxGeometry x="12.396086956521735" y="60.951708683473385" width="54.78260869565218" height="18.57142857142857" as="geometry" />
        </mxCell>
        <mxCell id="Lmyy_30AQW-yStVO0VXv-34" value="数据加密" style="rounded=0;whiteSpace=wrap;html=1;" vertex="1" parent="Lmyy_30AQW-yStVO0VXv-31">
          <mxGeometry x="82.8308695652174" y="60.951708683473385" width="54.78260869565218" height="18.57142857142857" as="geometry" />
        </mxCell>
        <mxCell id="Lmyy_30AQW-yStVO0VXv-35" value="日志管理" style="rounded=0;whiteSpace=wrap;html=1;" vertex="1" parent="Lmyy_30AQW-yStVO0VXv-31">
          <mxGeometry x="12.396086956521735" y="29.99932773109242" width="54.78260869565218" height="18.57142857142857" as="geometry" />
        </mxCell>
        <mxCell id="Lmyy_30AQW-yStVO0VXv-36" value="权限管理" style="rounded=0;whiteSpace=wrap;html=1;" vertex="1" parent="Lmyy_30AQW-yStVO0VXv-31">
          <mxGeometry x="82.8308695652174" y="29.99932773109242" width="54.78260869565218" height="18.57142857142857" as="geometry" />
        </mxCell>
        <mxCell id="Lmyy_30AQW-yStVO0VXv-37" value="" style="group" vertex="1" connectable="0" parent="1">
          <mxGeometry x="90" y="400" width="150" height="90" as="geometry" />
        </mxCell>
        <mxCell id="Lmyy_30AQW-yStVO0VXv-38" value="镜像服务器" style="rounded=1;whiteSpace=wrap;html=1;fillColor=#ffe6cc;strokeColor=#d79b00;verticalAlign=top;" vertex="1" parent="Lmyy_30AQW-yStVO0VXv-37">
          <mxGeometry width="150" height="90" as="geometry" />
        </mxCell>
        <mxCell id="Lmyy_30AQW-yStVO0VXv-39" value="评价分析" style="rounded=0;whiteSpace=wrap;html=1;" vertex="1" parent="Lmyy_30AQW-yStVO0VXv-37">
          <mxGeometry x="12.396086956521735" y="60.951708683473385" width="54.78260869565218" height="18.57142857142857" as="geometry" />
        </mxCell>
        <mxCell id="Lmyy_30AQW-yStVO0VXv-40" value="..." style="rounded=0;whiteSpace=wrap;html=1;" vertex="1" parent="Lmyy_30AQW-yStVO0VXv-37">
          <mxGeometry x="82.8308695652174" y="60.951708683473385" width="54.78260869565218" height="18.57142857142857" as="geometry" />
        </mxCell>
        <mxCell id="Lmyy_30AQW-yStVO0VXv-41" value="Harbor" style="rounded=0;whiteSpace=wrap;html=1;" vertex="1" parent="Lmyy_30AQW-yStVO0VXv-37">
          <mxGeometry x="12.396086956521735" y="29.99932773109242" width="54.78260869565218" height="18.57142857142857" as="geometry" />
        </mxCell>
        <mxCell id="Lmyy_30AQW-yStVO0VXv-42" value="评价报告" style="rounded=0;whiteSpace=wrap;html=1;" vertex="1" parent="Lmyy_30AQW-yStVO0VXv-37">
          <mxGeometry x="82.8308695652174" y="29.99932773109242" width="54.78260869565218" height="18.57142857142857" as="geometry" />
        </mxCell>
        <mxCell id="Lmyy_30AQW-yStVO0VXv-45" value="" style="group" vertex="1" connectable="0" parent="1">
          <mxGeometry x="480" y="400" width="150" height="90" as="geometry" />
        </mxCell>
        <mxCell id="Lmyy_30AQW-yStVO0VXv-46" value="应用服务器" style="rounded=1;whiteSpace=wrap;html=1;fillColor=#f0a30a;strokeColor=#BD7000;verticalAlign=top;fontColor=#000000;" vertex="1" parent="Lmyy_30AQW-yStVO0VXv-45">
          <mxGeometry width="150" height="90" as="geometry" />
        </mxCell>
        <mxCell id="Lmyy_30AQW-yStVO0VXv-47" value="数据备份" style="rounded=0;whiteSpace=wrap;html=1;" vertex="1" parent="Lmyy_30AQW-yStVO0VXv-45">
          <mxGeometry x="12.396086956521735" y="60.951708683473385" width="54.78260869565218" height="18.57142857142857" as="geometry" />
        </mxCell>
        <mxCell id="Lmyy_30AQW-yStVO0VXv-48" value="数据加密" style="rounded=0;whiteSpace=wrap;html=1;" vertex="1" parent="Lmyy_30AQW-yStVO0VXv-45">
          <mxGeometry x="82.8308695652174" y="60.951708683473385" width="54.78260869565218" height="18.57142857142857" as="geometry" />
        </mxCell>
        <mxCell id="Lmyy_30AQW-yStVO0VXv-49" value="日志管理" style="rounded=0;whiteSpace=wrap;html=1;" vertex="1" parent="Lmyy_30AQW-yStVO0VXv-45">
          <mxGeometry x="12.396086956521735" y="29.99932773109242" width="54.78260869565218" height="18.57142857142857" as="geometry" />
        </mxCell>
        <mxCell id="Lmyy_30AQW-yStVO0VXv-50" value="权限管理" style="rounded=0;whiteSpace=wrap;html=1;" vertex="1" parent="Lmyy_30AQW-yStVO0VXv-45">
          <mxGeometry x="82.8308695652174" y="29.99932773109242" width="54.78260869565218" height="18.57142857142857" as="geometry" />
        </mxCell>
      </root>
    </mxGraphModel>
  </diagram>
</mxfile>
